# xmcd
#
# Track frame offsets:
#	150
#	15547
#	30486
#	43272
#	61391
#	76600
#	89424
#	103801
#	119623
#	144831
#	161673
#	173524
#	188091
#	198816
#	210283
#
# Disc length: 2972 seconds
#
# Revision: 1
# Processed by: cddbd v1.5.2PL0 Copyright (c) Steve Scherf et al.
# Submitted via: audiograbber 1.83.01
#
DISCID=b80b9a0f
DTITLE=Various Artist - Ultimate Country Collection Disc 2
DYEAR=2009
DGENRE=Country
TTITLE0=Brad Paisley - Wrapped Around
TTITLE1=Brooks and Dunn - Boot Scootin' Boogie
TTITLE2=Gretchen Wilson - California Girls
TTITLE3=Lonestar - Amazed
TTITLE4=Mary Chapin Carpenter - Passionate Kisses
TTITLE5=Patty Loveless - I Try To Think About Elvis
TTITLE6=Ricky Skaggs - Highway 40 Blues
TTITLE7=Ronnie Milsap - He Got You
TTITLE8=Sara Evans - Born To Fly
TTITLE9=Shenandoah - Two Dozen Roses
TTITLE10=Skeeter Davis - The End Of The World
TTITLE11=The Highwaymen - Silver Stallion
TTITLE12=Dave Dudley - Six Days On The Road
TTITLE13=Sammi Smith - Help Me Make It Through The Night
TTITLE14=Johnny Cash - Folsom Prison Blues
EXTD=
EXTT0=
EXTT1=
EXTT2=
EXTT3=
EXTT4=
EXTT5=
EXTT6=
EXTT7=
EXTT8=
EXTT9=
EXTT10=
EXTT11=
EXTT12=
EXTT13=
EXTT14=
PLAYORDER=
